HIERARCHY
ROOT Hips
{
	OFFSET 55.678600 -10.688815 94.507301
	CHANNELS 6 Xposition Yposition Zposition Xrotation Yrotation Zrotation
	JOINT spine
	{
		OFFSET 0.000000 -0.448574 7.800583
		CHANNELS 3 Xrotation Yrotation Zrotation
		JOINT spine1
		{
			OFFSET 0.000000 -0.000002 10.136398
			CHANNELS 3 Xrotation Yrotation Zrotation
			JOINT spine2
			{
				OFFSET 0.000000 -0.000002 9.712509
				CHANNELS 3 Xrotation Yrotation Zrotation
				JOINT Neck
				{
					OFFSET 0.000000 -1.188873 24.936104
					CHANNELS 3 Xrotation Yrotation Zrotation
					JOINT Head
					{
						OFFSET 0.000000 -0.000001 7.533844
						CHANNELS 3 Xrotation Yrotation Zrotation
						End Site
						{
							OFFSET 0.000000 6.014017 18.236099
						}
					}
				}
				JOINT RightShoulder
				{
					OFFSET -4.089649 0.569455 10.488808
					CHANNELS 3 Xrotation Yrotation Zrotation
					JOINT RightArm
					{
						OFFSET 0.000000 -0.000002 13.757004
						CHANNELS 3 Xrotation Yrotation Zrotation
						JOINT RightArmRoll
						{
							OFFSET 0.000000 -0.000001 6.944778
							CHANNELS 3 Xrotation Yrotation Zrotation
							JOINT RightForeArm
							{
								OFFSET 0.000000 -0.000004 20.227692
								CHANNELS 3 Xrotation Yrotation Zrotation
								JOINT RightForeArmRoll
								{
									OFFSET 0.000000 -0.000001 7.793121
									CHANNELS 3 Xrotation Yrotation Zrotation
									JOINT RightHand
									{
										OFFSET 0.000000 -0.000003 15.639099
										CHANNELS 3 Xrotation Yrotation Zrotation
										End Site
										{
											OFFSET 0.000000 0.000000 0.100006
										}
									}
								}
							}
						}
					}
				}
				JOINT LeftShoulder
				{
					OFFSET 4.089649 0.569455 10.488808
					CHANNELS 3 Xrotation Yrotation Zrotation
					JOINT LeftArm
					{
						OFFSET 0.000000 -0.000002 13.757004
						CHANNELS 3 Xrotation Yrotation Zrotation
						JOINT LeftArmRoll
						{
							OFFSET 0.000000 -0.000001 6.944778
							CHANNELS 3 Xrotation Yrotation Zrotation
							JOINT LeftForeArm
							{
								OFFSET 0.000000 -0.000004 20.227692
								CHANNELS 3 Xrotation Yrotation Zrotation
								JOINT LeftForeArmRoll
								{
									OFFSET 0.000000 -0.000001 7.793121
									CHANNELS 3 Xrotation Yrotation Zrotation
									JOINT LeftHand
									{
										OFFSET 0.000000 -0.000003 15.639099
										CHANNELS 3 Xrotation Yrotation Zrotation
										End Site
										{
											OFFSET 0.000000 0.000000 0.100006
										}
									}
								}
							}
						}
					}
				}
			}
		}
	}
	JOINT RightUpLeg
	{
		OFFSET -6.914150 1.063581 -1.267883
		CHANNELS 3 Xrotation Yrotation Zrotation
		JOINT RightUpLegRoll
		{
			OFFSET 0.000000 -0.000003 18.337799
			CHANNELS 3 Xrotation Yrotation Zrotation
			JOINT RightLeg
			{
				OFFSET 0.000000 0.000004 -22.708504
				CHANNELS 3 Xrotation Yrotation Zrotation
				JOINT RightLegRoll
				{
					OFFSET 0.000000 -0.000004 22.782799
					CHANNELS 3 Xrotation Yrotation Zrotation
					JOINT RightFoot
					{
						OFFSET 0.000000 -0.000003 18.962898
						CHANNELS 3 Xrotation Yrotation Zrotation
						JOINT RightToeBase
						{
							OFFSET 0.000000 -0.000003 15.852005
							CHANNELS 3 Xrotation Yrotation Zrotation
							End Site
							{
								OFFSET 0.006718 0.884892 7.677002
							}
						}
					}
				}
			}
		}
	}
	JOINT LeftUpLeg
	{
		OFFSET 6.914150 1.063581 -1.267883
		CHANNELS 3 Xrotation Yrotation Zrotation
		JOINT LeftUpLegRoll
		{
			OFFSET 0.000000 -0.000003 18.337898
			CHANNELS 3 Xrotation Yrotation Zrotation
			JOINT LeftLeg
			{
				OFFSET 0.000000 -0.000004 22.708405
				CHANNELS 3 Xrotation Yrotation Zrotation
				JOINT LeftLegRoll
				{
					OFFSET 0.000000 -0.000004 22.993393
					CHANNELS 3 Xrotation Yrotation Zrotation
					JOINT LeftFoot
					{
						OFFSET 0.000000 -0.000003 18.752197
						CHANNELS 3 Xrotation Yrotation Zrotation
						JOINT LeftToeBase
						{
							OFFSET 0.000000 -0.000003 15.852005
							CHANNELS 3 Xrotation Yrotation Zrotation
							End Site
							{
								OFFSET -0.030113 0.884892 7.677017
							}
						}
					}
				}
			}
		}
	}
}
MOTION
Frames: 12
Frame Time: 0.041667
56.654709 -13.109214 94.166801 -4.561689 2.015192 -1.688312 -0.271905 -0.198970 0.341461 3.465536 -0.403715 0.699228 5.110583 -0.395525 0.703863 16.360313 0.400324 -1.666369 -14.620314 -4.836442 -1.783257 -38.029827 -83.463771 -42.113352 67.909880 -78.753563 76.955933 0.000001 0.000003 0.000003 18.397541 -14.432132 1.639916 -0.000001 -0.000006 -3.000001 -5.000232 -7.998776 0.000192 -2.266801 65.238852 3.362434 9.225244 105.698222 -18.910325 -0.000002 0.000003 -0.000004 26.907067 7.604898 -0.173580 0.000002 -0.000004 3.000001 -5.000447 7.999020 -0.000176 0.819618 -179.106097 -1.949143 -179.999991 0.000005 -1.071993 170.413520 1.144796 -0.654668 -0.000002 -0.000003 0.098530 70.102931 6.044931 4.328041 25.456945 -7.353686 0.000002 -1.111530 176.035736 4.674015 -0.000004 -0.000004 -1.283539 -13.700158 4.291438 0.832795 -0.000004 -0.000001 -0.234872 73.096773 -7.089315 -1.250502 25.456916 7.348315 -0.007730 
56.648106 -13.111713 94.173706 -4.567860 2.017228 -1.682321 -0.270578 -0.199366 0.341291 3.467826 -0.403257 0.697138 5.112872 -0.395070 0.701777 16.366009 0.399004 -1.663125 -14.625979 -4.838389 -1.780232 -38.238715 -83.500060 -42.325378 67.756173 -78.691586 76.634005 0.000001 0.000004 0.000002 18.513255 -14.502643 1.674100 0.000001 -0.000006 -3.000001 -5.000231 -7.998775 0.000192 -2.181804 65.246208 3.266669 8.796834 105.718911 -18.638401 -0.000002 0.000003 -0.000005 26.669252 7.498595 -0.144019 -0.000000 -0.000004 3.000002 -5.000446 7.999022 -0.000176 0.827626 -179.111083 -1.951260 -179.999991 0.000005 -1.071993 170.410501 1.146752 -0.654275 -0.000002 -0.000002 0.098535 70.108169 6.045263 4.325613 25.456945 -7.353686 0.000002 -1.101814 176.030736 4.665729 -0.000004 -0.000004 -1.283540 -13.697638 4.296294 0.833085 -0.000005 -0.000001 -0.234863 73.092484 -7.091316 -1.247173 25.456916 7.348314 -0.007730 
56.651905 -13.114717 94.179695 -4.574128 2.019184 -1.676312 -0.269294 -0.199764 0.341160 3.470026 -0.402734 0.695051 5.115061 -0.394548 0.699695 16.371911 0.398279 -1.659987 -14.630660 -4.841375 -1.777271 -38.452343 -83.536676 -42.542175 67.604283 -78.628236 76.314612 0.000001 0.000003 0.000003 18.624603 -14.574032 1.708395 0.000000 -0.000007 -3.000001 -5.000230 -7.998776 0.000192 -2.095546 65.253831 3.169505 8.365190 105.740290 -18.365580 -0.000002 0.000003 -0.000004 26.428082 7.391188 -0.115202 0.000001 -0.000004 3.000001 -5.000448 7.999022 -0.000177 0.835599 -179.116083 -1.953389 -179.999991 0.000005 -1.071993 170.407264 1.148722 -0.654873 -0.000002 -0.000002 0.098524 70.113381 6.045563 4.323283 25.456941 -7.353687 0.000001 -1.091766 176.025723 4.657428 -0.000004 -0.000004 -1.283550 -13.694922 4.301184 0.833366 -0.000005 -0.000001 -0.234849 73.088092 -7.093356 -1.243854 25.456918 7.348314 -0.007730 
56.651302 -13.116014 94.171997 -4.580467 2.021090 -1.670285 -0.268041 -0.200162 0.341057 3.472146 -0.402164 0.692967 5.117191 -0.393979 0.697614 16.378008 0.397971 -1.656902 -14.634659 -4.845101 -1.774358 -38.669796 -83.573464 -42.762810 67.454142 -78.564046 75.997445 0.000001 0.000003 0.000003 18.732994 -14.645911 1.742837 -0.000001 -0.000007 -3.000001 -5.000230 -7.998775 0.000192 -2.008400 65.261727 3.071369 7.932742 105.760418 -18.093584 -0.000002 0.000004 -0.000003 26.184486 7.282979 -0.087186 0.000001 -0.000004 3.000002 -5.000447 7.999022 -0.000176 0.843551 -179.121083 -1.955510 -179.999991 0.000005 -1.071993 170.403849 1.149693 -0.654638 -0.000002 -0.000002 0.098502 70.118804 6.045835 4.320836 25.456943 -7.353686 0.000001 -1.081488 176.020696 4.649099 -0.000005 -0.000004 -1.283561 -13.692104 4.306094 0.833643 -0.000004 -0.000001 -0.234832 73.083612 -7.095463 -1.240552 25.456916 7.348314 -0.007730 
56.648106 -13.117611 94.180496 -4.586858 2.022956 -1.664248 -0.266809 -0.200561 0.340969 3.474235 -0.401568 0.690885 5.119270 -0.393383 0.695535 16.384212 0.397901 -1.653868 -14.638359 -4.849249 -1.771483 -38.891295 -83.610408 -42.987517 67.306535 -78.499412 75.683052 0.000001 0.000003 0.000003 18.839542 -14.718001 1.777411 -0.000002 -0.000006 -3.000001 -5.000232 -7.998775 0.000192 -1.920706 65.269568 2.972626 7.499885 105.781366 -17.822209 -0.000002 0.000003 -0.000004 25.939599 7.174266 -0.060051 0.000002 -0.000005 3.000001 -5.000444 7.999022 -0.000177 0.851490 -179.126096 -1.957643 -179.999991 0.000005 -1.071993 170.400352 1.151647 -0.654236 -0.000003 -0.000002 0.098474 70.124213 6.046080 4.318585 25.456943 -7.353687 0.000002 -1.071079 176.015696 4.640772 -0.000005 -0.000004 -1.283560 -13.689084 4.311019 0.833907 -0.000004 -0.000001 -0.234814 73.079165 -7.097597 -1.237152 25.456918 7.348314 -0.007730 
56.651703 -13.133017 94.174103 -4.593255 2.024822 -1.658211 -0.265580 -0.200961 0.340885 3.476305 -0.400965 0.688801 5.121351 -0.392781 0.693455 16.390410 0.397891 -1.650842 -14.641871 -4.853500 -1.768604 -39.115264 -83.647250 -43.214685 67.161735 -78.434682 75.371493 0.000001 0.000004 0.000003 18.945910 -14.790162 1.812305 0.000001 -0.000006 -3.000002 -5.000232 -7.998774 0.000192 -1.832835 65.277361 2.873694 7.068466 105.802157 -17.552563 -0.000002 0.000002 -0.000004 25.694658 7.065353 -0.033853 0.000002 -0.000004 3.000000 -5.000444 7.999022 -0.000176 0.859423 -179.131096 -1.959766 -179.999991 0.000005 -1.071993 170.396827 1.153616 -0.654827 -0.000003 -0.000002 0.098443 70.129623 6.046314 4.316233 25.456945 -7.353686 0.000001 -1.060640 176.010683 4.632439 -0.000005 -0.000004 -1.283570 -13.686165 4.315943 0.834178 -0.000005 -0.000001 -0.234795 73.074698 -7.099701 -1.233750 25.456916 7.348314 -0.007730 
56.642105 -13.130816 94.179405 -4.599625 2.026697 -1.652174 -0.264340 -0.201360 0.340794 3.478406 -0.400375 0.686718 5.123439 -0.392192 0.691376 16.396509 0.397763 -1.647791 -14.645672 -4.857539 -1.765721 -39.341473 -83.683915 -43.444101 67.019585 -78.370192 75.062358 0.000001 0.000004 0.000002 19.053195 -14.862114 1.847521 -0.000002 -0.000006 -3.000001 -5.000231 -7.998774 0.000192 -1.745151 65.285004 2.774971 6.639888 105.822867 -17.285503 -0.000002 0.000002 -0.000003 25.450579 6.956535 -0.008594 0.000000 -0.000004 3.000001 -5.000446 7.999022 -0.000176 0.867366 -179.136095 -1.961892 -179.999991 0.000005 -1.071993 170.393317 1.155570 -0.654424 -0.000003 -0.000002 0.098417 70.135046 6.046585 4.313884 25.456945 -7.353686 0.000001 -1.050260 176.005669 4.624108 -0.000005 -0.000004 -1.283581 -13.683147 4.320866 0.834440 -0.000005 -0.000001 -0.234776 73.070231 -7.101809 -1.230448 25.456923 7.348315 -0.007730 
56.644405 -13.138712 94.168701 -4.605956 2.028603 -1.646155 -0.263081 -0.201758 0.340682 3.480546 -0.399819 0.684633 5.125590 -0.391637 0.689294 16.402510 0.397339 -1.644691 -14.649871 -4.861057 -1.762798 -39.569325 -83.720306 -43.675108 66.880803 -78.306534 74.756134 0.000001 0.000004 0.000002 19.162828 -14.933440 1.883113 -0.000003 -0.000006 -3.000001 -5.000229 -7.998776 0.000192 -1.658026 65.292483 2.676866 6.214712 105.845481 -17.020693 -0.000002 0.000002 -0.000004 25.208473 6.848133 0.015679 -0.000000 -0.000004 3.000001 -5.000445 7.999023 -0.000176 0.875322 -179.141095 -1.964028 -179.999991 0.000005 -1.071993 170.389956 1.156542 -0.654189 -0.000002 -0.000002 0.098398 70.140463 6.046827 4.311531 25.456938 -7.353687 0.000002 -1.040042 176.000656 4.615777 -0.000004 -0.000004 -1.283590 -13.680328 4.325768 0.834713 -0.000006 -0.000001 -0.234760 73.065764 -7.103914 -1.227047 25.456914 7.348313 -0.007730 
56.647503 -13.143812 94.173103 -4.612195 2.030579 -1.640154 -0.261783 -0.202156 0.340541 3.482764 -0.399317 0.682544 5.127811 -0.391136 0.687210 16.408408 0.396439 -1.641521 -14.654847 -4.863744 -1.759824 -39.797146 -83.756185 -43.906075 66.745619 -78.244093 74.452832 0.000001 0.000004 0.000002 19.276150 -15.004112 1.919227 -0.000002 -0.000006 -3.000001 -5.000233 -7.998776 0.000192 -1.571816 65.299511 2.579776 5.795132 105.868035 -16.759795 -0.000002 0.000002 -0.000004 24.969479 6.740439 0.038972 0.000001 -0.000004 3.000001 -5.000447 7.999021 -0.000176 0.883308 -179.146108 -1.966156 -179.999991 0.000005 -1.071993 170.386801 1.158511 -0.654788 -0.000002 -0.000002 0.098392 70.145688 6.047150 4.309104 25.456941 -7.353688 0.000002 -1.030095 175.995643 4.607472 -0.000005 -0.000004 -1.283590 -13.677708 4.330647 0.834998 -0.000004 -0.000001 -0.234748 73.061482 -7.105944 -1.223722 25.456918 7.348313 -0.007730 
56.645203 -13.130816 94.168808 -4.618314 2.032635 -1.634170 -0.260436 -0.202551 0.340355 3.485094 -0.398886 0.680454 5.130140 -0.390709 0.685123 16.414000 0.394888 -1.638236 -14.660905 -4.865266 -1.756773 -40.025072 -83.791545 -44.137102 66.614125 -78.183202 74.152359 0.000001 0.000003 0.000001 19.394585 -15.073621 1.955906 -0.000002 -0.000006 -3.000001 -5.000230 -7.998775 0.000193 -1.486901 65.306178 2.484112 5.382513 105.890554 -16.503552 -0.000002 0.000002 -0.000004 24.734594 6.633752 0.061279 0.000004 -0.000004 3.000000 -5.000447 7.999022 -0.000175 0.891329 -179.152092 -1.968309 -179.999991 0.000005 -1.071993 170.383877 1.160467 -0.654395 -0.000003 -0.000002 0.098403 70.150906 6.047441 4.306770 25.456940 -7.353687 0.000001 -1.020498 175.990643 4.599181 -0.000004 -0.000004 -1.283599 -13.675391 4.335491 0.835297 -0.000004 -0.000001 -0.234741 73.057267 -7.107880 -1.220478 25.456916 7.348313 -0.007730 
56.642403 -13.137316 94.169197 -4.624291 2.034801 -1.628211 -0.259023 -0.202944 0.340114 3.487565 -0.398550 0.678357 5.132609 -0.390377 0.683032 16.419396 0.392504 -1.634814 -14.668333 -4.865335 -1.753633 -40.250827 -83.826072 -44.365904 66.485977 -78.124291 73.854084 0.000000 0.000003 0.000001 19.519347 -15.141739 1.993202 -0.000001 -0.000006 -3.000001 -5.000230 -7.998775 0.000192 -1.403643 65.312277 2.390282 4.977577 105.914999 -16.251776 -0.000002 0.000004 -0.000003 24.504941 6.528394 0.082620 0.000001 -0.000004 3.000000 -5.000446 7.999022 -0.000177 0.899403 -179.157105 -1.970438 -179.999991 0.000005 -1.071993 170.381282 1.161441 -0.654177 -0.000002 -0.000002 0.098437 70.155953 6.047856 4.304270 25.456945 -7.353687 0.000001 -1.011360 175.985630 4.590920 -0.000005 -0.000004 -1.283600 -13.673274 4.340283 0.835601 -0.000003 -0.000001 -0.234740 73.053142 -7.109750 -1.217220 25.456914 7.348313 -0.007730 
56.634304 -13.144214 94.169891 -4.630085 2.037096 -1.622298 -0.257534 -0.203335 0.339807 3.490194 -0.398325 0.676255 5.135239 -0.390158 0.680935 16.424290 0.389111 -1.631230 -14.677329 -4.863616 -1.750369 -40.474936 -83.859826 -44.592987 66.362118 -78.067785 73.558747 0.000001 0.000004 0.000003 19.651790 -15.208328 2.031256 -0.000003 -0.000006 -3.000002 -5.000232 -7.998775 0.000192 -1.322419 65.317707 2.298698 4.582300 105.939369 -16.006014 -0.000002 0.000003 -0.000004 24.281729 6.424630 0.103019 0.000003 -0.000004 3.000000 -5.000446 7.999022 -0.000176 0.907532 -179.162105 -1.972578 -179.999991 0.000005 -1.071993 170.379110 1.162417 -0.653966 -0.000002 -0.000002 0.098498 70.160892 6.048263 4.301771 25.456943 -7.353687 0.000001 -1.002786 175.980603 4.582697 -0.000005 -0.000004 -1.283590 -13.671654 4.345027 0.835933 -0.000004 -0.000001 -0.234746 73.049187 -7.111512 -1.214034 25.456916 7.348314 -0.007730 
